<svg width="16" height="16" viewBox="0 0 16 16" fill="none" xmlns="http://www.w3.org/2000/svg">
<path fill-rule="evenodd" clip-rule="evenodd" d="M11.4997 2.70344L12.2076 1.99707L13.9982 3.79146L13.2904 4.49783L11.4997 2.70344ZM3.79082 2.00145L2.00018 3.79584L2.70803 4.50221L4.49867 2.70782L3.79082 2.00145ZM4.94437 13.0729C5.84884 13.6773 6.9122 13.9998 8 13.9998C9.45869 13.9998 10.8576 13.4204 11.8891 12.3889C12.9205 11.3575 13.5 9.95852 13.5 8.49983C13.5 7.41203 13.1774 6.34866 12.5731 5.44419C11.9687 4.53972 11.1098 3.83477 10.1048 3.41849C9.09977 3.00221 7.9939 2.89329 6.92701 3.10551C5.86011 3.31772 4.8801 3.84155 4.11092 4.61074C3.34173 5.37993 2.8179 6.35993 2.60568 7.42683C2.39346 8.49372 2.50238 9.59959 2.91867 10.6046C3.33495 11.6096 4.0399 12.4686 4.94437 13.0729ZM5.49994 4.75821C6.23996 4.26375 7.10999 3.99983 8 3.99983C9.19348 3.99983 10.3381 4.47393 11.182 5.31784C12.0259 6.16176 12.5 7.30635 12.5 8.49983C12.5 9.38984 12.2361 10.2599 11.7416 10.9999C11.2471 11.7399 10.5443 12.3167 9.72208 12.6573C8.89981 12.9979 7.99501 13.087 7.1221 12.9134C6.24918 12.7397 5.44736 12.3111 4.81802 11.6818C4.18869 11.0525 3.7601 10.2506 3.58647 9.37773C3.41284 8.50482 3.50195 7.60002 3.84254 6.77775C4.18314 5.95548 4.75991 5.25268 5.49994 4.75821ZM7.5 8.70482L9.295 10.4998L10 9.79482L8.5 8.28982V5.49982H7.5V8.70482Z" fill="#00001E"/>
</svg>
