<svg width="24" height="24" viewBox="0 0 24 24" fill="none" xmlns="http://www.w3.org/2000/svg">
<path fill-rule="evenodd" clip-rule="evenodd" d="M16.7499 17.2929C16.3357 17.2929 15.9999 16.9571 15.9999 16.5429L15.9999 5.35355L13.2802 8.07322C12.9873 8.36612 12.5124 8.36612 12.2195 8.07322C11.9267 7.78033 11.9267 7.30545 12.2195 7.01256L15.866 3.36612C16.3542 2.87796 17.1456 2.87796 17.6338 3.36612L21.2802 7.01256C21.5731 7.30546 21.5731 7.78033 21.2802 8.07322C20.9873 8.36612 20.5124 8.36612 20.2195 8.07322L17.4999 5.35355L17.4999 16.5429C17.4999 16.9571 17.1641 17.2929 16.7499 17.2929ZM7.75 6.00005C8.16421 6.00005 8.5 6.33583 8.5 6.75005V17.9394L11.2197 15.2197C11.5126 14.9268 11.9874 14.9268 12.2803 15.2197C12.5732 15.5126 12.5732 15.9875 12.2803 16.2804L8.63388 19.9268C8.14573 20.415 7.35427 20.415 6.86612 19.9268L3.21967 16.2804C2.92678 15.9875 2.92678 15.5126 3.21967 15.2197C3.51256 14.9268 3.98744 14.9268 4.28033 15.2197L7 17.9394L7 6.75004C7 6.33583 7.33579 6.00005 7.75 6.00005Z" fill="#00001E"/>
</svg>
