<svg width="24" height="24" viewBox="0 0 24 24" fill="none" xmlns="http://www.w3.org/2000/svg">
<path fill-rule="evenodd" clip-rule="evenodd" d="M15.2075 6.75C14.8745 8.04392 13.6999 9 12.302 9C10.9041 9 9.72955 8.04392 9.39651 6.75H4C3.58579 6.75 3.25 6.41421 3.25 6C3.25 5.58579 3.58579 5.25 4 5.25H9.39651C9.72955 3.95608 10.9041 3 12.302 3C13.6999 3 14.8745 3.95608 15.2075 5.25H20C20.4142 5.25 20.75 5.58579 20.75 6C20.75 6.41421 20.4142 6.75 20 6.75H15.2075ZM13.802 6C13.802 6.82843 13.1304 7.5 12.302 7.5C11.4736 7.5 10.802 6.82843 10.802 6C10.802 5.17157 11.4736 4.5 12.302 4.5C13.1304 4.5 13.802 5.17157 13.802 6Z" fill="#00001E"/>
<path fill-rule="evenodd" clip-rule="evenodd" d="M3.25 12C3.25 11.5858 3.58579 11.25 4 11.25H6C6.03151 11.25 6.06256 11.2519 6.09305 11.2557C6.42409 9.95889 7.60006 9 9 9C10.3999 9 11.5759 9.95889 11.9069 11.2557C11.9374 11.2519 11.9685 11.25 12 11.25H20C20.4142 11.25 20.75 11.5858 20.75 12C20.75 12.4142 20.4142 12.75 20 12.75H12C11.9685 12.75 11.9374 12.7481 11.9069 12.7443C11.5759 14.0411 10.3999 15 9 15C7.60006 15 6.42409 14.0411 6.09305 12.7443C6.06256 12.7481 6.03151 12.75 6 12.75H4C3.58579 12.75 3.25 12.4142 3.25 12ZM9 13.5C9.82843 13.5 10.5 12.8284 10.5 12C10.5 11.1716 9.82843 10.5 9 10.5C8.17157 10.5 7.5 11.1716 7.5 12C7.5 12.8284 8.17157 13.5 9 13.5Z" fill="#00001E"/>
<path fill-rule="evenodd" clip-rule="evenodd" d="M20 18.75C20.4142 18.75 20.75 18.4142 20.75 18C20.75 17.5858 20.4142 17.25 20 17.25H18C17.9685 17.25 17.9374 17.2519 17.9069 17.2557C17.5759 15.9589 16.3999 15 15 15C13.6001 15 12.4241 15.9589 12.0931 17.2557C12.0626 17.2519 12.0315 17.25 12 17.25L4 17.25C3.58579 17.25 3.25 17.5858 3.25 18C3.25 18.4142 3.58579 18.75 4 18.75L12 18.75C12.0315 18.75 12.0626 18.7481 12.0931 18.7443C12.4241 20.0411 13.6001 21 15 21C16.3999 21 17.5759 20.0411 17.9069 18.7443C17.9374 18.7481 17.9685 18.75 18 18.75H20ZM13.5 18C13.5 17.1716 14.1716 16.5 15 16.5C15.8284 16.5 16.5 17.1716 16.5 18C16.5 18.8284 15.8284 19.5 15 19.5C14.1716 19.5 13.5 18.8284 13.5 18Z" fill="#00001E"/>
</svg>
