<svg width="28" height="28" viewBox="0 0 28 28" fill="none" xmlns="http://www.w3.org/2000/svg">
<path fill-rule="evenodd" clip-rule="evenodd" d="M20 6H26C26.5302 6.00061 27.0386 6.21152 27.4135 6.58646C27.7885 6.9614 27.9994 7.46975 28 8V18C28.0003 20.3047 27.2044 22.5387 25.7471 24.3241C24.2897 26.1095 22.2603 27.3366 20.0022 27.7979C17.7442 28.2591 15.3961 27.9262 13.3553 26.8553C11.3145 25.7845 9.70627 24.0416 8.8027 21.9214C6.37747 21.6267 4.14371 20.4553 2.52231 18.6279C0.900901 16.8004 0.00379002 14.4431 0 12V2C0.000608734 1.46975 0.211518 0.9614 0.586459 0.586459C0.9614 0.211518 1.46975 0.000608734 2 0H18C18.5302 0.000608734 19.0386 0.211518 19.4135 0.586459C19.7885 0.9614 19.9994 1.46975 20 2V6ZM2 2V12C2.00311 13.8016 2.61361 15.5495 3.73284 16.9612C4.85207 18.3729 6.41463 19.366 8.168 19.78C8.05877 19.1929 8.00254 18.5972 8 18V8C8.00061 7.46975 8.21152 6.9614 8.58646 6.58646C8.9614 6.21152 9.46975 6.00061 10 6H18V2H2ZM23.6569 23.6569C25.1571 22.1566 26 20.1217 26 18V8H10V18C10 20.1217 10.8429 22.1566 12.3431 23.6569C13.8434 25.1571 15.8783 26 18 26C20.1217 26 22.1566 25.1571 23.6569 23.6569ZM14 12.0001C13.6044 12.0001 13.2178 12.1174 12.8889 12.3372C12.56 12.5569 12.3036 12.8693 12.1522 13.2347C12.0009 13.6002 11.9613 14.0023 12.0384 14.3903C12.1156 14.7782 12.3061 15.1346 12.5858 15.4143C12.8655 15.694 13.2219 15.8845 13.6098 15.9617C13.9978 16.0388 14.3999 15.9992 14.7654 15.8479C15.1308 15.6965 15.4432 15.4401 15.6629 15.1112C15.8827 14.7823 16 14.3957 16 14.0001C16.0026 13.7367 15.9526 13.4755 15.853 13.2317C15.7535 12.9879 15.6062 12.7663 15.42 12.5801C15.2338 12.3939 15.0122 12.2466 14.7684 12.1471C14.5246 12.0475 14.2634 11.9975 14 12.0001ZM20.8889 12.3372C21.2178 12.1174 21.6044 12.0001 22 12.0001C22.2634 11.9975 22.5246 12.0475 22.7684 12.1471C23.0122 12.2466 23.2338 12.3939 23.42 12.5801C23.6062 12.7663 23.7535 12.9879 23.853 13.2317C23.9526 13.4755 24.0026 13.7367 24 14.0001C24 14.3957 23.8827 14.7823 23.6629 15.1112C23.4432 15.4401 23.1308 15.6965 22.7654 15.8479C22.3999 15.9992 21.9978 16.0388 21.6098 15.9617C21.2219 15.8845 20.8655 15.694 20.5858 15.4143C20.3061 15.1346 20.1156 14.7782 20.0384 14.3903C19.9613 14.0023 20.0009 13.6002 20.1522 13.2347C20.3036 12.8693 20.56 12.5569 20.8889 12.3372ZM14.6897 22.1695C15.7076 22.7155 16.8449 23.0007 18 22.9998C19.1551 23.0007 20.2924 22.7155 21.3102 22.1695C22.3281 21.6235 23.1949 20.8339 23.833 19.8711L22.167 18.7637C21.7108 19.4512 21.0916 20.0153 20.3645 20.4054C19.6374 20.7956 18.8251 20.9998 18 20.9998C17.1749 20.9998 16.3625 20.7956 15.6355 20.4054C14.9084 20.0153 14.2892 19.4512 13.833 18.7637L12.167 19.8711C12.8051 20.8339 13.6719 21.6235 14.6897 22.1695Z" fill="#FD226E"/>
</svg>
