<svg width="10" height="14" viewBox="0 0 10 14" fill="none" xmlns="http://www.w3.org/2000/svg">
<path d="M7.5 0.5H2.5C1.83719 0.500754 1.20174 0.764389 0.733066 1.23307C0.264389 1.70174 0.000754314 2.33719 0 3V9C0.0018573 9.53741 0.177184 10.0598 0.499889 10.4896C0.822594 10.9193 1.27543 11.2334 1.791 11.385L0.88465 13.5H1.97255L2.8297 11.5H7.1703L8.02745 13.5H9.11535L8.209 11.385C8.72457 11.2334 9.17741 10.9193 9.50011 10.4896C9.82282 10.0598 9.99814 9.53741 10 9V3C9.99925 2.33719 9.73561 1.70174 9.26693 1.23307C8.79826 0.764389 8.16281 0.500754 7.5 0.5ZM2.5 1.5H7.5C7.8092 1.50093 8.11052 1.59756 8.3626 1.77661C8.61467 1.95566 8.80514 2.20836 8.90785 2.5H1.09215C1.19486 2.20836 1.38532 1.95566 1.6374 1.77661C1.88948 1.59756 2.1908 1.50093 2.5 1.5ZM9 8.5H7.5V9.5H8.90785C8.80514 9.79164 8.61467 10.0443 8.3626 10.2234C8.11052 10.4024 7.8092 10.4991 7.5 10.5H2.5C2.1908 10.4991 1.88948 10.4024 1.6374 10.2234C1.38532 10.0443 1.19486 9.79164 1.09215 9.5H2.5V8.5H1V7.5H9V8.5ZM9 6.5H1V3.5H9V6.5Z" fill="#00001E"/>
</svg>
