<svg width="28" height="27" viewBox="0 0 28 27" fill="none" xmlns="http://www.w3.org/2000/svg">
<path fill-rule="evenodd" clip-rule="evenodd" d="M26.7663 1.25564C26.0142 0.491407 24.9989 0.0427819 23.9275 0.00121577C22.856 -0.0403504 21.8091 0.328272 21 1.03194C20.1909 0.328272 19.144 -0.0403504 18.0725 0.00121577C17.0011 0.0427819 15.9858 0.491407 15.2337 1.25564C14.4429 2.0629 14 3.14794 14 4.27799C14 5.40804 14.4429 6.49308 15.2337 7.30034L20.998 13.1398L21 13.1374L21.002 13.1393L26.7663 7.30034C27.5571 6.49308 28 5.40804 28 4.27799C28 3.14794 27.5571 2.0629 26.7663 1.25564ZM25.342 5.89464L21.002 10.2919L21 10.2898L20.998 10.2918L16.658 5.89454C16.2345 5.46293 15.9972 4.88236 15.9972 4.27764C15.9972 3.67292 16.2345 3.09235 16.658 2.66074C17.0806 2.24993 17.6467 2.02011 18.2361 2.02011C18.8254 2.02011 19.3915 2.24993 19.8141 2.66074L20.9951 3.86814L21 3.86324L21.0049 3.86824L22.1859 2.66084C22.6085 2.25003 23.1746 2.02021 23.764 2.02021C24.3533 2.02021 24.9194 2.25003 25.342 2.66084C25.7656 3.09245 26.0028 3.67302 26.0028 4.27774C26.0028 4.88246 25.7656 5.46303 25.342 5.89464ZM14 27H12V22C11.9991 21.2046 11.6828 20.4421 11.1204 19.8796C10.5579 19.3172 9.79538 19.0009 9 19H5C4.20462 19.0009 3.44206 19.3172 2.87964 19.8796C2.31722 20.4421 2.00087 21.2046 2 22V27H0V22C0.00156145 20.6744 0.528847 19.4035 1.46619 18.4662C2.40353 17.5288 3.6744 17.0016 5 17H9C10.3256 17.0016 11.5965 17.5288 12.5338 18.4662C13.4712 19.4035 13.9984 20.6744 14 22V27ZM8.66671 7.50559C8.17337 7.17595 7.59335 7 7 7C6.20435 7 5.44129 7.31607 4.87868 7.87868C4.31607 8.44129 4 9.20435 4 10C4 10.5933 4.17595 11.1734 4.50559 11.6667C4.83524 12.1601 5.30377 12.5446 5.85195 12.7716C6.40013 12.9987 7.00333 13.0581 7.58527 12.9424C8.16722 12.8266 8.70177 12.5409 9.12132 12.1213C9.54088 11.7018 9.8266 11.1672 9.94236 10.5853C10.0581 10.0033 9.9987 9.40013 9.77164 8.85195C9.54458 8.30377 9.16006 7.83524 8.66671 7.50559ZM4.22215 5.84265C5.0444 5.29325 6.0111 5 7 5C7.65661 5 8.30679 5.12933 8.91342 5.3806C9.52005 5.63188 10.0712 6.00017 10.5355 6.46447C10.9998 6.92876 11.3681 7.47995 11.6194 8.08658C11.8707 8.69321 12 9.34339 12 10C12 10.9889 11.7068 11.9556 11.1573 12.7779C10.6079 13.6001 9.82705 14.241 8.91342 14.6194C7.99979 14.9978 6.99446 15.0969 6.02455 14.9039C5.05465 14.711 4.16373 14.2348 3.46447 13.5355C2.76521 12.8363 2.289 11.9454 2.09608 10.9755C1.90315 10.0055 2.00217 9.00021 2.3806 8.08658C2.75904 7.17295 3.39991 6.39206 4.22215 5.84265Z" fill="#FD226E"/>
</svg>
