<svg width="28" height="28" viewBox="0 0 28 28" fill="none" xmlns="http://www.w3.org/2000/svg">
<path fill-rule="evenodd" clip-rule="evenodd" d="M14 0H26C26.5302 0.000608734 27.0386 0.211518 27.4135 0.586459C27.7885 0.9614 27.9994 1.46975 28 2V28H0V14C0.000529477 13.4697 0.211413 12.9613 0.586371 12.5864C0.961329 12.2114 1.46973 12.0005 2 12H12V2C12.0005 1.46973 12.2114 0.961329 12.5864 0.586371C12.9613 0.211413 13.4697 0.000529477 14 0ZM7 19V26H11V19H7ZM13 26H26V2H14V14H2V26H5V18C5 17.7348 5.10536 17.4804 5.29289 17.2929C5.48043 17.1054 5.73478 17 6 17H12C12.2652 17 12.5196 17.1054 12.7071 17.2929C12.8946 17.4804 13 17.7348 13 18V26ZM16 6H18V8H16V6ZM24 6H22V8H24V6ZM16 12H18V14H16V12ZM24 12H22V14H24V12ZM16 17.9996H18V19.9996H16V17.9996ZM24 17.9996H22V19.9996H24V17.9996ZM0 8.00024H5V9.99974H0V8.00024ZM10 0H8V5H10V0ZM2 3.41406L3.41407 1.99999L7.00002 5.58594L5.58595 7.00001L2 3.41406Z" fill="#FD226E"/>
</svg>
